<?xml version="1.0" encoding="UTF-8"?>
<!DOCTYPE svg PUBLIC "-//W3C//DTD SVG 1.1//EN" "http://www.w3.org/Graphics/SVG/1.1/DTD/svg11.dtd">
<svg xmlns="http://www.w3.org/2000/svg" version="1.1" width="225px" height="225px" style="shape-rendering:geometricPrecision; text-rendering:geometricPrecision; image-rendering:optimizeQuality; fill-rule:evenodd; clip-rule:evenodd" xmlns:xlink="http://www.w3.org/1999/xlink">
<g><path style="opacity:1" fill="#fefefe" d="M -0.5,-0.5 C 74.5,-0.5 149.5,-0.5 224.5,-0.5C 224.5,43.5 224.5,87.5 224.5,131.5C 220.554,126.543 216.554,121.543 212.5,116.5C 215.426,115.078 217.926,113.078 220,110.5C 221.958,100.26 217.791,94.0932 207.5,92C 198.84,91.5002 190.173,91.3336 181.5,91.5C 181.5,104.833 181.5,118.167 181.5,131.5C 186.975,132.489 192.642,132.822 198.5,132.5C 198.185,128.629 198.518,124.962 199.5,121.5C 201.599,124.856 203.599,128.356 205.5,132C 211.825,132.5 218.158,132.666 224.5,132.5C 224.5,163.167 224.5,193.833 224.5,224.5C 149.5,224.5 74.5,224.5 -0.5,224.5C -0.5,193.833 -0.5,163.167 -0.5,132.5C 4.83333,132.5 10.1667,132.5 15.5,132.5C 15.8235,125.978 15.4902,119.645 14.5,113.5C 14.7748,111.158 15.6081,111.158 17,113.5C 20.9426,119.741 25.1092,125.741 29.5,131.5C 34.6405,132.488 39.9738,132.821 45.5,132.5C 45.5,118.833 45.5,105.167 45.5,91.5C 39.9738,91.1786 34.6405,91.5119 29.5,92.5C 29.4495,99.5597 29.6162,106.56 30,113.5C 25.0428,106.42 20.2095,99.253 15.5,92C 10.1771,91.5006 4.84372,91.334 -0.5,91.5C -0.5,60.8333 -0.5,30.1667 -0.5,-0.5 Z"/></g>
<g><path style="opacity:1" fill="#a0d09a" d="M 139.5,93.5 C 133.933,92.196 128.266,92.196 122.5,93.5C 125.087,92.1836 128.087,91.517 131.5,91.5C 134.5,91.8333 137.5,92.1667 140.5,92.5C 140.376,93.1067 140.043,93.44 139.5,93.5 Z"/></g>
<g><path style="opacity:1" fill="#91c88b" d="M 29.5,92.5 C 34.6405,91.5119 39.9738,91.1786 45.5,91.5C 45.5,105.167 45.5,118.833 45.5,132.5C 39.9738,132.821 34.6405,132.488 29.5,131.5C 34.5,131.5 39.5,131.5 44.5,131.5C 44.5,118.5 44.5,105.5 44.5,92.5C 39.5,92.5 34.5,92.5 29.5,92.5 Z"/></g>
<g><path style="opacity:1" fill="#90c989" d="M 174.5,92.5 C 164.5,92.5 154.5,92.5 144.5,92.5C 144.5,105.5 144.5,118.5 144.5,131.5C 154.5,131.5 164.5,131.5 174.5,131.5C 174.5,128.167 174.5,124.833 174.5,121.5C 175.482,124.962 175.815,128.629 175.5,132.5C 164.833,132.5 154.167,132.5 143.5,132.5C 143.5,118.833 143.5,105.167 143.5,91.5C 154.014,91.1724 164.347,91.5058 174.5,92.5 Z"/></g>
<g><path style="opacity:1" fill="#58b04c" d="M -0.5,91.5 C 4.84372,91.334 10.1771,91.5006 15.5,92C 20.2095,99.253 25.0428,106.42 30,113.5C 29.6162,106.56 29.4495,99.5597 29.5,92.5C 34.5,92.5 39.5,92.5 44.5,92.5C 44.5,105.5 44.5,118.5 44.5,131.5C 39.5,131.5 34.5,131.5 29.5,131.5C 25.1092,125.741 20.9426,119.741 17,113.5C 15.6081,111.158 14.7748,111.158 14.5,113.5C 14.5,119.5 14.5,125.5 14.5,131.5C 9.5,131.5 4.5,131.5 -0.5,131.5C -0.5,118.167 -0.5,104.833 -0.5,91.5 Z"/></g>
<g><path style="opacity:1" fill="#5ab14e" d="M 97.5,130.5 C 91.9327,131.804 86.266,131.804 80.5,130.5C 80.5858,129.504 80.2524,128.671 79.5,128C 75.1794,127.501 70.8461,127.334 66.5,127.5C 66.7678,129.099 66.4345,130.432 65.5,131.5C 59.9738,131.821 54.6405,131.488 49.5,130.5C 53.8227,117.707 58.656,105.041 64,92.5C 70.3333,91.1667 76.6667,91.1667 83,92.5C 87.5694,105.299 92.4027,117.966 97.5,130.5 Z"/></g>
<g><path style="opacity:1" fill="#5bb14f" d="M 122.5,93.5 C 128.266,92.196 133.933,92.196 139.5,93.5C 134.104,106.179 128.604,118.845 123,131.5C 118.218,132.802 113.385,132.802 108.5,131.5C 102.576,118.647 96.9089,105.647 91.5,92.5C 97.1667,91.1667 102.833,91.1667 108.5,92.5C 111.439,100.366 113.939,108.366 116,116.5C 117.982,108.745 120.148,101.078 122.5,93.5 Z"/></g>
<g><path style="opacity:1" fill="#56b04a" d="M 174.5,92.5 C 174.5,95.8333 174.5,99.1667 174.5,102.5C 169.833,102.5 165.167,102.5 160.5,102.5C 160.5,103.833 160.5,105.167 160.5,106.5C 164.298,107.483 168.298,107.817 172.5,107.5C 172.5,110.5 172.5,113.5 172.5,116.5C 168.298,116.183 164.298,116.517 160.5,117.5C 160.5,118.833 160.5,120.167 160.5,121.5C 165.167,121.5 169.833,121.5 174.5,121.5C 174.5,124.833 174.5,128.167 174.5,131.5C 164.5,131.5 154.5,131.5 144.5,131.5C 144.5,118.5 144.5,105.5 144.5,92.5C 154.5,92.5 164.5,92.5 174.5,92.5 Z"/></g>
<g><path style="opacity:1" fill="#5ab14e" d="M 224.5,131.5 C 224.5,131.833 224.5,132.167 224.5,132.5C 218.158,132.666 211.825,132.5 205.5,132C 203.599,128.356 201.599,124.856 199.5,121.5C 198.518,124.962 198.185,128.629 198.5,132.5C 192.642,132.822 186.975,132.489 181.5,131.5C 181.5,118.167 181.5,104.833 181.5,91.5C 190.173,91.3336 198.84,91.5002 207.5,92C 217.791,94.0932 221.958,100.26 220,110.5C 217.926,113.078 215.426,115.078 212.5,116.5C 216.554,121.543 220.554,126.543 224.5,131.5 Z"/></g>
<g><path style="opacity:1" fill="#ecf6eb" d="M 197.5,102.5 C 203.553,102.006 205.22,104.173 202.5,109C 200.866,109.494 199.199,109.66 197.5,109.5C 197.5,107.167 197.5,104.833 197.5,102.5 Z"/></g>
<g><path style="opacity:1" fill="#87c67f" d="M 160.5,106.5 C 164.833,106.5 169.167,106.5 173.5,106.5C 173.5,110.167 173.5,113.833 173.5,117.5C 169.167,117.5 164.833,117.5 160.5,117.5C 164.298,116.517 168.298,116.183 172.5,116.5C 172.5,113.5 172.5,110.5 172.5,107.5C 168.298,107.817 164.298,107.483 160.5,106.5 Z"/></g>
<g><path style="opacity:1" fill="#edf6ec" d="M 72.5,105.5 C 75.1727,108.849 76.5061,112.849 76.5,117.5C 74.5,117.5 72.5,117.5 70.5,117.5C 71.3755,113.538 72.0422,109.538 72.5,105.5 Z"/></g>
<g><path style="opacity:1" fill="#85c37e" d="M 14.5,113.5 C 15.4902,119.645 15.8235,125.978 15.5,132.5C 10.1667,132.5 4.83333,132.5 -0.5,132.5C -0.5,132.167 -0.5,131.833 -0.5,131.5C 4.5,131.5 9.5,131.5 14.5,131.5C 14.5,125.5 14.5,119.5 14.5,113.5 Z"/></g>
<g><path style="opacity:1" fill="#8ec687" d="M 49.5,130.5 C 54.6405,131.488 59.9738,131.821 65.5,131.5C 59.9871,132.816 54.3204,132.816 48.5,131.5C 48.6236,130.893 48.9569,130.56 49.5,130.5 Z"/></g>
<g><path style="opacity:1" fill="#92c98b" d="M 80.5,130.5 C 86.266,131.804 91.9327,131.804 97.5,130.5C 98.0431,130.56 98.3764,130.893 98.5,131.5C 95.5,131.833 92.5,132.167 89.5,132.5C 86.0866,132.483 83.0866,131.816 80.5,130.5 Z"/></g>
<g><path style="opacity:1" fill="#a8d4a3" d="M 199.5,121.5 C 198.518,124.962 198.185,128.629 198.5,132.5C 192.642,132.822 186.975,132.489 181.5,131.5C 186.833,131.5 192.167,131.5 197.5,131.5C 197.176,127.445 197.509,123.445 198.5,119.5C 199.298,119.957 199.631,120.624 199.5,121.5 Z"/></g>
</svg>
