<?xml version="1.0" encoding="UTF-8"?>
<!DOCTYPE svg PUBLIC "-//W3C//DTD SVG 1.1//EN" "http://www.w3.org/Graphics/SVG/1.1/DTD/svg11.dtd">
<svg xmlns="http://www.w3.org/2000/svg" version="1.1" width="225px" height="225px" style="shape-rendering:geometricPrecision; text-rendering:geometricPrecision; image-rendering:optimizeQuality; fill-rule:evenodd; clip-rule:evenodd" xmlns:xlink="http://www.w3.org/1999/xlink">
<g><path style="opacity:1" fill="#58af4c" d="M 159.5,92.5 C 163.5,92.5 167.5,92.5 171.5,92.5C 172.159,95.4552 172.492,98.4552 172.5,101.5C 170.143,101.663 167.81,101.497 165.5,101C 163.873,98.9803 162.039,97.147 160,95.5C 159.581,99.8518 158.914,100.185 158,96.5C 158.361,106.763 158.528,116.93 158.5,127C 153.892,128.482 149.225,129.649 144.5,130.5C 144.5,126.833 144.5,123.167 144.5,119.5C 146.164,120.949 146.998,122.949 147,125.5C 147.833,123.833 148.667,122.167 149.5,120.5C 148.819,112.54 148.653,104.207 149,95.5C 149.5,95 150,94.5 150.5,94C 153.695,93.8195 156.695,93.3195 159.5,92.5 Z"/></g>
<g><path style="opacity:1" fill="#5cac51" d="M 211.5,93.5 C 213.97,93.6535 215.97,94.6535 217.5,96.5C 217.614,98.7179 218.28,100.718 219.5,102.5C 218.292,101.766 216.959,101.433 215.5,101.5C 215.799,103.604 215.466,105.604 214.5,107.5C 213.779,105.314 213.113,103.147 212.5,101C 213.448,100.517 214.448,100.351 215.5,100.5C 215.5,99.1667 215.5,97.8333 215.5,96.5C 214.167,96.5 212.833,96.5 211.5,96.5C 211.719,97.675 211.386,98.675 210.5,99.5C 209.833,97.8333 209.167,96.1667 208.5,94.5C 207.813,96.2744 206.98,97.9411 206,99.5C 203.987,94.3059 201.821,94.3059 199.5,99.5C 201.386,100.406 203.22,101.406 205,102.5C 205.36,104.608 206.027,106.608 207,108.5C 207.667,107.833 208.333,107.167 209,106.5C 209.273,111.273 211.773,113.273 216.5,112.5C 213.741,112.933 212.408,114.6 212.5,117.5C 211.194,113.618 208.527,110.952 204.5,109.5C 202.775,111.092 201.775,110.758 201.5,108.5C 203.344,107.796 203.844,106.463 203,104.5C 201.644,103.62 200.144,103.286 198.5,103.5C 198.338,105.527 198.505,107.527 199,109.5C 199.383,108.944 199.883,108.611 200.5,108.5C 199.817,110.176 198.483,110.843 196.5,110.5C 196.5,109.167 196.5,107.833 196.5,106.5C 196.632,103.111 196.799,99.7772 197,96.5C 196.072,94.6652 194.906,94.3318 193.5,95.5C 192.476,94.1468 191.143,93.4802 189.5,93.5C 187.05,93.298 184.717,93.6314 182.5,94.5C 186.276,93.1752 190.443,92.5085 195,92.5C 200.526,92.6075 206.026,92.9408 211.5,93.5 Z M 201.5,108.5 C 201.167,108.5 200.833,108.5 200.5,108.5C 199.883,108.611 199.383,108.944 199,109.5C 198.505,107.527 198.338,105.527 198.5,103.5C 200.144,103.286 201.644,103.62 203,104.5C 203.844,106.463 203.344,107.796 201.5,108.5 Z"/></g>
<g><path style="opacity:1" fill="#58af4c" d="M 126.5,121.5 C 126.66,119.801 126.494,118.134 126,116.5C 125,118.167 123.667,119.5 122,120.5C 122.497,124.894 120.664,127.228 116.5,127.5C 116.278,124.61 116.945,121.943 118.5,119.5C 113.862,117.949 111.862,114.282 112.5,108.5C 113.469,110.663 114.302,112.996 115,115.5C 115.333,115.167 115.667,114.833 116,114.5C 116.308,115.308 116.808,115.975 117.5,116.5C 117.969,111.252 119.303,106.252 121.5,101.5C 121.043,100.702 120.376,100.369 119.5,100.5C 119.989,99.0048 120.655,97.6715 121.5,96.5C 122.962,95.5423 124.295,94.3756 125.5,93C 130.167,92.3333 134.833,92.3333 139.5,93C 134.17,102.152 129.837,111.652 126.5,121.5 Z"/></g>
<g><path style="opacity:1" fill="#59ae4d" d="M 159.5,92.5 C 156.695,93.3195 153.695,93.8195 150.5,94C 150,94.5 149.5,95 149,95.5C 148.653,104.207 148.819,112.54 149.5,120.5C 148.667,122.167 147.833,123.833 147,125.5C 146.998,122.949 146.164,120.949 144.5,119.5C 144.5,110.5 144.5,101.5 144.5,92.5C 149.5,92.5 154.5,92.5 159.5,92.5 Z"/></g>
<g><path style="opacity:1" fill="#58ae4d" d="M 189.5,93.5 C 188.181,104.598 188.181,115.598 189.5,126.5C 189.5,127.5 189.5,128.5 189.5,129.5C 191.5,129.5 193.5,129.5 195.5,129.5C 195.205,127.265 195.539,125.265 196.5,123.5C 196.5,125.833 196.5,128.167 196.5,130.5C 191.833,130.5 187.167,130.5 182.5,130.5C 182.5,118.5 182.5,106.5 182.5,94.5C 184.717,93.6314 187.05,93.298 189.5,93.5 Z"/></g>
<g><path style="opacity:1" fill="#57af4b" d="M 189.5,93.5 C 191.143,93.4802 192.476,94.1468 193.5,95.5C 194.906,94.3318 196.072,94.6652 197,96.5C 196.799,99.7772 196.632,103.111 196.5,106.5C 194.809,109.801 192.976,113.134 191,116.5C 190.667,109.833 190.333,103.167 190,96.5C 189.5,106.494 189.334,116.494 189.5,126.5C 188.181,115.598 188.181,104.598 189.5,93.5 Z"/></g>
<g><path style="opacity:1" fill="#58af4c" d="M 19.5,101.5 C 17.0283,102.642 16.0283,104.642 16.5,107.5C 14.8828,108.038 13.2161,108.371 11.5,108.5C 12.0671,110.969 12.0671,113.302 11.5,115.5C 9.36069,117.139 9.02736,119.139 10.5,121.5C 10.2811,122.938 9.78107,124.271 9,125.5C 8.35234,120.796 8.51901,116.129 9.5,111.5C 8.5,111.5 7.5,111.5 6.5,111.5C 6.66501,108.15 6.49834,104.817 6,101.5C 4.33099,103.169 3.49766,105.169 3.5,107.5C 2.5,107.5 1.5,107.5 0.5,107.5C 0.824527,114.687 0.491194,121.687 -0.5,128.5C -0.5,117.833 -0.5,107.167 -0.5,96.5C 0.166667,96.5 0.5,96.1667 0.5,95.5C 4.31763,95.5862 7.98429,94.9195 11.5,93.5C 13.5351,94.2043 15.5351,94.871 17.5,95.5C 17.5792,96.9305 17.2458,98.2638 16.5,99.5C 17.0047,100.919 18.0047,101.585 19.5,101.5 Z"/></g>
<g><path style="opacity:1" fill="#62a855" d="M 119.5,100.5 C 120.376,100.369 121.043,100.702 121.5,101.5C 119.303,106.252 117.969,111.252 117.5,116.5C 116.808,115.975 116.308,115.308 116,114.5C 115.667,114.833 115.333,115.167 115,115.5C 114.302,112.996 113.469,110.663 112.5,108.5C 109.997,104.827 107.997,100.827 106.5,96.5C 105.833,97.8333 105.167,99.1667 104.5,100.5C 103.22,98.2756 103.553,96.2756 105.5,94.5C 101.877,93.641 98.5435,93.641 95.5,94.5C 94.9426,96.7175 94.9426,99.0509 95.5,101.5C 93.4654,98.6005 91.7987,95.4338 90.5,92C 96.5,91.3333 102.5,91.3333 108.5,92C 111.59,98.9355 114.09,106.102 116,113.5C 117.276,109.177 118.442,104.844 119.5,100.5 Z"/></g>
<g><path style="opacity:1" fill="#65a55b" d="M 93.5,119.5 C 91.0485,114.597 88.5485,109.597 86,104.5C 85.1475,102.875 84.1475,102.542 83,103.5C 82.8236,100.118 82.3236,96.7848 81.5,93.5C 75.8955,92.5456 70.2289,92.2123 64.5,92.5C 64.5,93.5 64.5,94.5 64.5,95.5C 63.8333,95.5 63.1667,95.5 62.5,95.5C 62.5394,94.4168 62.8728,93.4168 63.5,92.5C 70.1667,91.1667 76.8333,91.1667 83.5,92.5C 87.1416,101.438 90.475,110.438 93.5,119.5 Z"/></g>
<g><path style="opacity:1" fill="#56b049" d="M 219.5,102.5 C 219.976,106.378 218.976,109.712 216.5,112.5C 211.773,113.273 209.273,111.273 209,106.5C 208.333,107.167 207.667,107.833 207,108.5C 206.027,106.608 205.36,104.608 205,102.5C 203.22,101.406 201.386,100.406 199.5,99.5C 201.821,94.3059 203.987,94.3059 206,99.5C 206.98,97.9411 207.813,96.2744 208.5,94.5C 209.167,96.1667 209.833,97.8333 210.5,99.5C 211.386,98.675 211.719,97.675 211.5,96.5C 212.833,96.5 214.167,96.5 215.5,96.5C 215.5,97.8333 215.5,99.1667 215.5,100.5C 214.448,100.351 213.448,100.517 212.5,101C 213.113,103.147 213.779,105.314 214.5,107.5C 215.466,105.604 215.799,103.604 215.5,101.5C 216.959,101.433 218.292,101.766 219.5,102.5 Z"/></g>
<g><path style="opacity:1" fill="#57af4b" d="M 62.5,95.5 C 63.1667,95.5 63.8333,95.5 64.5,95.5C 65.675,95.281 66.675,95.6143 67.5,96.5C 69.4505,101.754 71.1172,101.587 72.5,96C 74.4715,96.0096 75.4715,97.1763 75.5,99.5C 74.1603,100.99 73.1603,102.656 72.5,104.5C 69.0608,108.412 68.7275,112.412 71.5,116.5C 71.5,117.5 71.5,118.5 71.5,119.5C 74.1667,119.167 76.8333,118.833 79.5,118.5C 79.5,120.833 79.5,123.167 79.5,125.5C 74.7665,124.983 70.0998,124.983 65.5,125.5C 64.1476,124.482 63.1476,123.149 62.5,121.5C 61.5481,123.045 61.2148,124.712 61.5,126.5C 62.5,126.5 63.5,126.5 64.5,126.5C 64.5,127.833 64.5,129.167 64.5,130.5C 60.4862,130.666 56.4862,130.499 52.5,130C 54.8835,128.59 56.5502,126.59 57.5,124C 56.5509,123.383 55.7175,123.549 55,124.5C 54.5065,122.866 54.3398,121.199 54.5,119.5C 55.4783,115.394 57.3117,111.727 60,108.5C 60.5569,104.406 61.3902,100.406 62.5,96.5C 62.5,96.1667 62.5,95.8333 62.5,95.5 Z"/></g>
<g><path style="opacity:1" fill="#58af4c" d="M 112.5,108.5 C 111.814,109.848 110.814,111.015 109.5,112C 110.825,115.654 112.158,119.321 113.5,123C 113.576,125.756 112.243,126.923 109.5,126.5C 109.5,127.5 109.5,128.5 109.5,129.5C 108.778,128.449 107.778,127.782 106.5,127.5C 103.94,118.378 100.273,109.712 95.5,101.5C 94.9426,99.0509 94.9426,96.7175 95.5,94.5C 98.5435,93.641 101.877,93.641 105.5,94.5C 103.553,96.2756 103.22,98.2756 104.5,100.5C 105.167,99.1667 105.833,97.8333 106.5,96.5C 107.997,100.827 109.997,104.827 112.5,108.5 Z"/></g>
<g><path style="opacity:0.722" fill="#6ea363" d="M 161.5,103.5 C 165.298,102.517 169.298,102.183 173.5,102.5C 174.069,98.6707 173.402,95.3373 171.5,92.5C 167.5,92.5 163.5,92.5 159.5,92.5C 154.5,92.5 149.5,92.5 144.5,92.5C 144.5,101.5 144.5,110.5 144.5,119.5C 144.5,123.167 144.5,126.833 144.5,130.5C 154.319,131.494 164.319,131.827 174.5,131.5C 174.5,128.167 174.5,124.833 174.5,121.5C 169.968,121.818 165.634,121.485 161.5,120.5C 166.167,120.5 170.833,120.5 175.5,120.5C 175.5,124.5 175.5,128.5 175.5,132.5C 164.833,132.5 154.167,132.5 143.5,132.5C 143.5,118.833 143.5,105.167 143.5,91.5C 153.833,91.5 164.167,91.5 174.5,91.5C 174.5,95.5 174.5,99.5 174.5,103.5C 170.167,103.5 165.833,103.5 161.5,103.5 Z"/></g>
<g><path style="opacity:1" fill="#56af4a" d="M 11.5,115.5 C 11.6655,119.514 11.4988,123.514 11,127.5C 8.64574,127.892 6.14574,127.892 3.5,127.5C 3.82818,122.125 3.49485,116.792 2.5,111.5C 1.21122,117.19 1.21122,122.857 2.5,128.5C 6.12236,129.325 9.78902,129.825 13.5,130C 8.8452,130.499 4.17853,130.666 -0.5,130.5C -0.5,129.833 -0.5,129.167 -0.5,128.5C 0.491194,121.687 0.824527,114.687 0.5,107.5C 1.5,107.5 2.5,107.5 3.5,107.5C 3.49766,105.169 4.33099,103.169 6,101.5C 6.49834,104.817 6.66501,108.15 6.5,111.5C 7.5,111.5 8.5,111.5 9.5,111.5C 8.51901,116.129 8.35234,120.796 9,125.5C 9.78107,124.271 10.2811,122.938 10.5,121.5C 9.02736,119.139 9.36069,117.139 11.5,115.5 Z"/></g>
<g><path style="opacity:1" fill="#57af4b" d="M 93.5,119.5 C 94.1143,123.135 94.4476,126.802 94.5,130.5C 92.1667,130.5 89.8333,130.5 87.5,130.5C 87.3184,128.409 87.6518,126.409 88.5,124.5C 87.273,123.41 86.4396,122.076 86,120.5C 82.1117,129.795 80.945,129.295 82.5,119C 82.4328,114.664 81.5994,110.497 80,106.5C 79,113.167 78,113.167 77,106.5C 75.6703,105.418 74.1703,104.751 72.5,104.5C 73.1603,102.656 74.1603,100.99 75.5,99.5C 75.4715,97.1763 74.4715,96.0096 72.5,96C 71.1172,101.587 69.4505,101.754 67.5,96.5C 66.675,95.6143 65.675,95.281 64.5,95.5C 64.5,94.5 64.5,93.5 64.5,92.5C 70.2289,92.2123 75.8955,92.5456 81.5,93.5C 82.3236,96.7848 82.8236,100.118 83,103.5C 84.1475,102.542 85.1475,102.875 86,104.5C 88.5485,109.597 91.0485,114.597 93.5,119.5 Z"/></g>
<g><path style="opacity:0.88" fill="#6ba461" d="M 211.5,93.5 C 206.026,92.9408 200.526,92.6075 195,92.5C 190.443,92.5085 186.276,93.1752 182.5,94.5C 182.5,106.5 182.5,118.5 182.5,130.5C 187.167,130.5 191.833,130.5 196.5,130.5C 196.5,128.167 196.5,125.833 196.5,123.5C 197.404,122.791 197.737,121.791 197.5,120.5C 201.835,120.715 203.168,122.715 201.5,126.5C 200.68,124.86 199.847,123.193 199,121.5C 198.501,125.152 198.335,128.818 198.5,132.5C 192.833,132.5 187.167,132.5 181.5,132.5C 181.5,118.833 181.5,105.167 181.5,91.5C 190.506,91.3336 199.506,91.5002 208.5,92C 209.737,92.2321 210.737,92.7321 211.5,93.5 Z"/></g>
<g><path style="opacity:1" fill="#58af4d" d="M 196.5,106.5 C 196.5,107.833 196.5,109.167 196.5,110.5C 198.483,110.843 199.817,110.176 200.5,108.5C 200.833,108.5 201.167,108.5 201.5,108.5C 201.775,110.758 202.775,111.092 204.5,109.5C 208.527,110.952 211.194,113.618 212.5,117.5C 212.937,119.074 213.937,120.241 215.5,121C 213.07,121.643 211.403,123.143 210.5,125.5C 209.833,124.5 209.167,123.5 208.5,122.5C 207.828,123.949 207.161,125.282 206.5,126.5C 205.679,123.359 205.179,120.025 205,116.5C 203.003,115.328 201.17,113.995 199.5,112.5C 197.83,113.995 195.997,115.328 194,116.5C 193.502,119.817 193.335,123.15 193.5,126.5C 192.167,126.5 190.833,126.5 189.5,126.5C 189.334,116.494 189.5,106.494 190,96.5C 190.333,103.167 190.667,109.833 191,116.5C 192.976,113.134 194.809,109.801 196.5,106.5 Z"/></g>
<g><path style="opacity:1" fill="#58ae4d" d="M 16.5,107.5 C 18.9819,109.503 19.9819,112.169 19.5,115.5C 18.5655,114.432 18.2322,113.099 18.5,111.5C 16.8212,111.285 15.8212,111.952 15.5,113.5C 15.5,113.833 15.5,114.167 15.5,114.5C 14.5111,119.975 14.1778,125.642 14.5,131.5C 9.5,131.5 4.5,131.5 -0.5,131.5C -0.5,131.167 -0.5,130.833 -0.5,130.5C 4.17853,130.666 8.8452,130.499 13.5,130C 9.78902,129.825 6.12236,129.325 2.5,128.5C 1.21122,122.857 1.21122,117.19 2.5,111.5C 3.49485,116.792 3.82818,122.125 3.5,127.5C 6.14574,127.892 8.64574,127.892 11,127.5C 11.4988,123.514 11.6655,119.514 11.5,115.5C 12.0671,113.302 12.0671,110.969 11.5,108.5C 13.2161,108.371 14.8828,108.038 16.5,107.5 Z"/></g>
<g><path style="opacity:1" fill="#59ae4d" d="M 171.5,92.5 C 173.402,95.3373 174.069,98.6707 173.5,102.5C 169.298,102.183 165.298,102.517 161.5,103.5C 161.5,104.5 161.5,105.5 161.5,106.5C 164.962,107.482 168.629,107.815 172.5,107.5C 172.5,110.5 172.5,113.5 172.5,116.5C 168.629,116.185 164.962,116.518 161.5,117.5C 161.5,118.5 161.5,119.5 161.5,120.5C 165.634,121.485 169.968,121.818 174.5,121.5C 174.5,124.833 174.5,128.167 174.5,131.5C 164.319,131.827 154.319,131.494 144.5,130.5C 149.225,129.649 153.892,128.482 158.5,127C 158.528,116.93 158.361,106.763 158,96.5C 158.914,100.185 159.581,99.8518 160,95.5C 162.039,97.147 163.873,98.9803 165.5,101C 167.81,101.497 170.143,101.663 172.5,101.5C 172.492,98.4552 172.159,95.4552 171.5,92.5 Z"/></g>
<g><path style="opacity:1" fill="#58b14b" d="M 206.5,126.5 C 207.562,127.575 207.562,128.575 206.5,129.5C 205.378,128.37 204.044,127.703 202.5,127.5C 201.833,127.5 201.5,127.167 201.5,126.5C 203.168,122.715 201.835,120.715 197.5,120.5C 197.737,121.791 197.404,122.791 196.5,123.5C 195.539,125.265 195.205,127.265 195.5,129.5C 193.5,129.5 191.5,129.5 189.5,129.5C 189.5,128.5 189.5,127.5 189.5,126.5C 190.833,126.5 192.167,126.5 193.5,126.5C 193.335,123.15 193.502,119.817 194,116.5C 195.997,115.328 197.83,113.995 199.5,112.5C 201.17,113.995 203.003,115.328 205,116.5C 205.179,120.025 205.679,123.359 206.5,126.5 Z"/></g>
<g><path style="opacity:1" fill="#5cac52" d="M 72.5,104.5 C 74.1703,104.751 75.6703,105.418 77,106.5C 78,113.167 79,113.167 80,106.5C 81.5994,110.497 82.4328,114.664 82.5,119C 80.945,129.295 82.1117,129.795 86,120.5C 86.4396,122.076 87.273,123.41 88.5,124.5C 87.6518,126.409 87.3184,128.409 87.5,130.5C 89.8333,130.5 92.1667,130.5 94.5,130.5C 94.4476,126.802 94.1143,123.135 93.5,119.5C 94.6737,120.514 95.3404,121.847 95.5,123.5C 95.8333,126.167 96.1667,128.833 96.5,131.5C 91.1667,131.5 85.8333,131.5 80.5,131.5C 80.1667,130.167 79.8333,128.833 79.5,127.5C 75.3537,126.353 71.0204,126.186 66.5,127C 65.6198,128.356 65.2865,129.856 65.5,131.5C 60.8333,131.5 56.1667,131.5 51.5,131.5C 51.3082,127.098 52.3082,123.098 54.5,119.5C 54.3398,121.199 54.5065,122.866 55,124.5C 55.7175,123.549 56.5509,123.383 57.5,124C 56.5502,126.59 54.8835,128.59 52.5,130C 56.4862,130.499 60.4862,130.666 64.5,130.5C 64.5,129.167 64.5,127.833 64.5,126.5C 63.5,126.5 62.5,126.5 61.5,126.5C 61.2148,124.712 61.5481,123.045 62.5,121.5C 63.1476,123.149 64.1476,124.482 65.5,125.5C 70.0998,124.983 74.7665,124.983 79.5,125.5C 79.5,123.167 79.5,120.833 79.5,118.5C 76.8333,118.833 74.1667,119.167 71.5,119.5C 71.5,118.5 71.5,117.5 71.5,116.5C 68.7275,112.412 69.0608,108.412 72.5,104.5 Z M 71.5,116.5 C 72.2721,106.009 73.6054,106.009 75.5,116.5C 74.1667,116.5 72.8333,116.5 71.5,116.5 Z"/></g>
<g><path style="opacity:0.702" fill="#70a267" d="M 161.5,106.5 C 165.5,106.5 169.5,106.5 173.5,106.5C 173.5,110.167 173.5,113.833 173.5,117.5C 169.5,117.5 165.5,117.5 161.5,117.5C 164.962,116.518 168.629,116.185 172.5,116.5C 172.5,113.5 172.5,110.5 172.5,107.5C 168.629,107.815 164.962,107.482 161.5,106.5 Z"/></g>
<g><path style="opacity:0.255" fill="#6fa765" d="M 106.5,127.5 C 107.778,127.782 108.778,128.449 109.5,129.5C 113.634,130.485 117.968,130.818 122.5,130.5C 122.699,126.867 124.033,123.867 126.5,121.5C 129.837,111.652 134.17,102.152 139.5,93C 134.833,92.3333 130.167,92.3333 125.5,93C 124.295,94.3756 122.962,95.5423 121.5,96.5C 122.038,94.8828 122.371,93.2161 122.5,91.5C 128.5,91.5 134.5,91.5 140.5,91.5C 135.403,105.032 129.736,118.366 123.5,131.5C 118.533,132.662 113.533,132.829 108.5,132C 107.418,130.67 106.751,129.17 106.5,127.5 Z"/></g>
<g><path style="opacity:1" fill="#59a94f" d="M 25.5,106.5 C 25.3765,110.04 27.0432,112.04 30.5,112.5C 30.5,111.5 30.5,110.5 30.5,109.5C 31.7251,110.152 32.3917,111.319 32.5,113C 32.3333,114.167 32.1667,115.333 32,116.5C 30.9505,115.483 29.7839,115.316 28.5,116C 29.7691,118.139 29.7691,120.305 28.5,122.5C 25.9229,119.452 23.7563,116.119 22,112.5C 21.4456,110.39 20.6123,108.39 19.5,106.5C 20.5064,104.646 20.5064,102.979 19.5,101.5C 18.0047,101.585 17.0047,100.919 16.5,99.5C 17.2458,98.2638 17.5792,96.9305 17.5,95.5C 15.5351,94.871 13.5351,94.2043 11.5,93.5C 7.98429,94.9195 4.31763,95.5862 0.5,95.5C 0.166667,95.5 -0.166667,95.5 -0.5,95.5C -0.5,95.1667 -0.5,94.8333 -0.5,94.5C 3.84254,93.6086 8.17588,92.6086 12.5,91.5C 13.8333,91.8333 15.1667,92.1667 16.5,92.5C 19.5106,97.1949 22.5106,101.862 25.5,106.5 Z"/></g>
<g><path style="opacity:1" fill="#56b04a" d="M 30.5,94.5 C 32.1172,95.038 33.7839,95.3713 35.5,95.5C 34.9677,107.31 35.6344,118.977 37.5,130.5C 36.1667,130.5 34.8333,130.5 33.5,130.5C 31.8561,130.714 30.3561,130.38 29,129.5C 25.6281,124.963 22.4614,120.297 19.5,115.5C 19.9819,112.169 18.9819,109.503 16.5,107.5C 16.0283,104.642 17.0283,102.642 19.5,101.5C 20.5064,102.979 20.5064,104.646 19.5,106.5C 20.6123,108.39 21.4456,110.39 22,112.5C 23.7563,116.119 25.9229,119.452 28.5,122.5C 29.7691,120.305 29.7691,118.139 28.5,116C 29.7839,115.316 30.9505,115.483 32,116.5C 32.1667,115.333 32.3333,114.167 32.5,113C 32.3917,111.319 31.7251,110.152 30.5,109.5C 30.5,104.5 30.5,99.5 30.5,94.5 Z"/></g>
<g><path style="opacity:0.537" fill="#6fa363" d="M 95.5,101.5 C 100.273,109.712 103.94,118.378 106.5,127.5C 102.315,119.121 98.6486,110.455 95.5,101.5 Z"/></g>
<g><path style="opacity:1" fill="#55b149" d="M 112.5,108.5 C 111.862,114.282 113.862,117.949 118.5,119.5C 116.945,121.943 116.278,124.61 116.5,127.5C 120.664,127.228 122.497,124.894 122,120.5C 123.667,119.5 125,118.167 126,116.5C 126.494,118.134 126.66,119.801 126.5,121.5C 124.033,123.867 122.699,126.867 122.5,130.5C 117.968,130.818 113.634,130.485 109.5,129.5C 109.5,128.5 109.5,127.5 109.5,126.5C 112.243,126.923 113.576,125.756 113.5,123C 112.158,119.321 110.825,115.654 109.5,112C 110.814,111.015 111.814,109.848 112.5,108.5 Z"/></g>
<g><path style="opacity:1" fill="#5fa952" d="M 217.5,96.5 C 223.664,104.669 222.331,111.503 213.5,117C 216.827,121.846 220.493,126.346 224.5,130.5C 224.5,131.167 224.5,131.833 224.5,132.5C 217.8,132.83 211.134,132.497 204.5,131.5C 203.82,130.14 203.153,128.807 202.5,127.5C 204.044,127.703 205.378,128.37 206.5,129.5C 207.562,128.575 207.562,127.575 206.5,126.5C 207.161,125.282 207.828,123.949 208.5,122.5C 209.167,123.5 209.833,124.5 210.5,125.5C 211.403,123.143 213.07,121.643 215.5,121C 213.937,120.241 212.937,119.074 212.5,117.5C 212.408,114.6 213.741,112.933 216.5,112.5C 218.976,109.712 219.976,106.378 219.5,102.5C 218.28,100.718 217.614,98.7179 217.5,96.5 Z"/></g>
<g><path style="opacity:1" fill="#639d59" d="M 15.5,113.5 C 15.8212,111.952 16.8212,111.285 18.5,111.5C 18.2322,113.099 18.5655,114.432 19.5,115.5C 22.4614,120.297 25.6281,124.963 29,129.5C 30.3561,130.38 31.8561,130.714 33.5,130.5C 36.9619,131.482 40.6286,131.815 44.5,131.5C 44.5,124.833 44.5,118.167 44.5,111.5C 44.8214,105.974 44.4881,100.64 43.5,95.5C 43.5,94.5 43.5,93.5 43.5,92.5C 38.706,91.9031 34.3727,92.5698 30.5,94.5C 30.5,99.5 30.5,104.5 30.5,109.5C 30.5,110.5 30.5,111.5 30.5,112.5C 27.0432,112.04 25.3765,110.04 25.5,106.5C 26.8036,107.987 27.9702,109.654 29,111.5C 29.4996,104.842 29.6663,98.175 29.5,91.5C 34.8333,91.5 40.1667,91.5 45.5,91.5C 45.5,105.167 45.5,118.833 45.5,132.5C 39.7945,132.829 34.1278,132.495 28.5,131.5C 24.1452,125.433 19.8118,119.433 15.5,113.5 Z"/></g>
<g><path style="opacity:1" fill="#58af4a" d="M 43.5,95.5 C 44.4881,100.64 44.8214,105.974 44.5,111.5C 43.8334,117.679 43.1668,124.012 42.5,130.5C 41.8076,129.975 41.3076,129.308 41,128.5C 40.5002,117.505 40.3335,106.505 40.5,95.5C 41.5,95.5 42.5,95.5 43.5,95.5 Z"/></g>
<g><path style="opacity:1" fill="#59ae4e" d="M 43.5,95.5 C 42.5,95.5 41.5,95.5 40.5,95.5C 40.3335,106.505 40.5002,117.505 41,128.5C 41.3076,129.308 41.8076,129.975 42.5,130.5C 43.1668,124.012 43.8334,117.679 44.5,111.5C 44.5,118.167 44.5,124.833 44.5,131.5C 40.6286,131.815 36.9619,131.482 33.5,130.5C 34.8333,130.5 36.1667,130.5 37.5,130.5C 35.6344,118.977 34.9677,107.31 35.5,95.5C 33.7839,95.3713 32.1172,95.038 30.5,94.5C 34.3727,92.5698 38.706,91.9031 43.5,92.5C 43.5,93.5 43.5,94.5 43.5,95.5 Z"/></g>
<g><path style="opacity:0.733" fill="#6ca563" d="M 15.5,114.5 C 15.5,120.5 15.5,126.5 15.5,132.5C 10.1667,132.5 4.83333,132.5 -0.5,132.5C -0.5,132.167 -0.5,131.833 -0.5,131.5C 4.5,131.5 9.5,131.5 14.5,131.5C 14.1778,125.642 14.5111,119.975 15.5,114.5 Z"/></g>
<g><path style="opacity:0.749" fill="#71a465" d="M 62.5,96.5 C 61.3902,100.406 60.5569,104.406 60,108.5C 57.3117,111.727 55.4783,115.394 54.5,119.5C 52.3082,123.098 51.3082,127.098 51.5,131.5C 56.1667,131.5 60.8333,131.5 65.5,131.5C 65.2865,129.856 65.6198,128.356 66.5,127C 71.0204,126.186 75.3537,126.353 79.5,127.5C 75.4454,127.176 71.4454,127.509 67.5,128.5C 66.7542,129.736 66.4208,131.07 66.5,132.5C 60.1579,132.666 53.8246,132.5 47.5,132C 52.1296,119.919 57.1296,108.086 62.5,96.5 Z"/></g>
<g><path style="opacity:0.798" fill="#7cac73" d="M 95.5,123.5 C 96.9299,126.197 98.2632,129.031 99.5,132C 92.9863,132.82 86.6529,132.653 80.5,131.5C 85.8333,131.5 91.1667,131.5 96.5,131.5C 96.1667,128.833 95.8333,126.167 95.5,123.5 Z"/></g>
</svg>
