<?xml version="1.0" encoding="UTF-8"?>
<!DOCTYPE svg PUBLIC "-//W3C//DTD SVG 1.1//EN" "http://www.w3.org/Graphics/SVG/1.1/DTD/svg11.dtd">
<svg xmlns="http://www.w3.org/2000/svg" version="1.1" width="1178px" height="212px" style="shape-rendering:geometricPrecision; text-rendering:geometricPrecision; image-rendering:optimizeQuality; fill-rule:evenodd; clip-rule:evenodd" xmlns:xlink="http://www.w3.org/1999/xlink">
<g><path style="opacity:1" fill="#58af4c" d="M 952.5,-0.5 C 994.167,-0.5 1035.83,-0.5 1077.5,-0.5C 1098.78,1.30202 1118.11,8.46869 1135.5,21C 1156.46,42.3589 1162.63,67.5256 1154,96.5C 1148.02,109.816 1138.18,118.983 1124.5,124C 1120.09,125.35 1115.76,126.85 1111.5,128.5C 1118.12,133.286 1123.95,138.953 1129,145.5C 1144.94,167.081 1161.11,188.414 1177.5,209.5C 1177.5,210.167 1177.5,210.833 1177.5,211.5C 1144.17,211.5 1110.83,211.5 1077.5,211.5C 1077.32,208.784 1076.82,206.117 1076,203.5C 1072.08,199.935 1068.91,195.935 1066.5,191.5C 1056.85,175.553 1047.69,159.219 1039,142.5C 1038.5,165.498 1038.33,188.498 1038.5,211.5C 1009.83,211.5 981.167,211.5 952.5,211.5C 952.5,140.833 952.5,70.1667 952.5,-0.5 Z M 1066.5,62.5 C 1071.69,68.7137 1072.86,75.7137 1070,83.5C 1067.96,85.3702 1066.13,87.3702 1064.5,89.5C 1056.06,92.1358 1047.4,93.1358 1038.5,92.5C 1038.5,80.8333 1038.5,69.1667 1038.5,57.5C 1048.41,56.768 1057.75,58.4347 1066.5,62.5 Z"/></g>
<g><path style="opacity:1" fill="#57af4c" d="M -0.5,-0.5 C 27.5,-0.5 55.5,-0.5 83.5,-0.5C 109.081,39.0868 135.081,78.4201 161.5,117.5C 161.833,117 162.167,116.5 162.5,116C 159.219,103.699 157.052,91.1986 156,78.5C 155.5,52.1688 155.333,25.8354 155.5,-0.5C 183.5,-0.5 211.5,-0.5 239.5,-0.5C 239.5,70.1667 239.5,140.833 239.5,211.5C 211.167,211.5 182.833,211.5 154.5,211.5C 129.927,174.034 104.593,137.034 78.5,100.5C 78.1667,100.833 77.8333,101.167 77.5,101.5C 80.843,111.557 82.6763,121.891 83,132.5C 83.5,158.831 83.6666,185.165 83.5,211.5C 55.5,211.5 27.5,211.5 -0.5,211.5C -0.5,140.833 -0.5,70.1667 -0.5,-0.5 Z"/></g>
<g><path style="opacity:1" fill="#57af4c" d="M 756.5,-0.5 C 771.833,-0.5 787.167,-0.5 802.5,-0.5C 803.429,0.314913 804.429,1.14825 805.5,2C 825.167,2.33333 844.833,2.66667 864.5,3C 868.867,4.57142 872.867,4.23808 876.5,2C 875.244,1.58309 874.577,0.749754 874.5,-0.5C 888.167,-0.5 901.833,-0.5 915.5,-0.5C 915.5,19.1667 915.5,38.8333 915.5,58.5C 891.167,58.5 866.833,58.5 842.5,58.5C 842.177,65.0221 842.51,71.3554 843.5,77.5C 843.47,78.4972 843.97,79.1639 845,79.5C 866.133,78.5167 887.3,78.1833 908.5,78.5C 908.205,80.7354 908.539,82.7354 909.5,84.5C 909.5,100.833 909.5,117.167 909.5,133.5C 887.167,133.5 864.833,133.5 842.5,133.5C 842.5,140.167 842.5,146.833 842.5,153.5C 867.833,153.5 893.167,153.5 918.5,153.5C 918.5,172.833 918.5,192.167 918.5,211.5C 864.5,211.5 810.5,211.5 756.5,211.5C 756.5,140.833 756.5,70.1667 756.5,-0.5 Z"/></g>
<g><path style="opacity:1" fill="#57af4c" d="M 337.5,-0.5 C 369.833,-0.5 402.167,-0.5 434.5,-0.5C 462.836,70.1779 491.17,140.845 519.5,211.5C 488.5,211.5 457.5,211.5 426.5,211.5C 423.758,202.94 421.424,194.274 419.5,185.5C 397.823,185.167 376.156,185.5 354.5,186.5C 351.959,194.788 349.625,203.122 347.5,211.5C 316.5,211.5 285.5,211.5 254.5,211.5C 282.551,141.019 310.218,70.3518 337.5,-0.5 Z M 385.5,70.5 C 386.586,70.62 387.253,71.2867 387.5,72.5C 392.327,92.9728 397.661,113.306 403.5,133.5C 392.52,134.499 381.52,134.832 370.5,134.5C 376.323,113.364 381.323,92.031 385.5,70.5 Z"/></g>
<g><path style="opacity:1" fill="#57af4c" d="M 478.5,-0.5 C 508.833,-0.5 539.167,-0.5 569.5,-0.5C 579.687,30.8941 590.187,62.2275 601,93.5C 603.822,105.442 606.322,117.442 608.5,129.5C 611.167,114.336 614.667,99.3359 619,84.5C 628.016,56.0954 637.183,27.7621 646.5,-0.5C 676.833,-0.5 707.167,-0.5 737.5,-0.5C 707.025,70.2605 676.359,140.927 645.5,211.5C 620.5,211.5 595.5,211.5 570.5,211.5C 539.807,140.787 509.14,70.1199 478.5,-0.5 Z"/></g>
<g><path style="opacity:1" fill="#77ba6c" d="M 802.5,-0.5 C 826.5,-0.5 850.5,-0.5 874.5,-0.5C 874.577,0.749754 875.244,1.58309 876.5,2C 872.867,4.23808 868.867,4.57142 864.5,3C 844.833,2.66667 825.167,2.33333 805.5,2C 804.429,1.14825 803.429,0.314913 802.5,-0.5 Z"/></g>
<g><path style="opacity:0.981" fill="#5ea356" d="M 754.5,-0.5 C 755.167,-0.5 755.833,-0.5 756.5,-0.5C 756.5,70.1667 756.5,140.833 756.5,211.5C 755.833,211.5 755.167,211.5 754.5,211.5C 754.5,140.833 754.5,70.1667 754.5,-0.5 Z"/></g>
<g><path style="opacity:0.243" fill="#5f9f56" d="M 1066.5,62.5 C 1069.15,62.7385 1070.98,64.0718 1072,66.5C 1072.98,72.9884 1072.48,79.3217 1070.5,85.5C 1068.74,87.2776 1066.74,88.6109 1064.5,89.5C 1066.13,87.3702 1067.96,85.3702 1070,83.5C 1072.86,75.7137 1071.69,68.7137 1066.5,62.5 Z"/></g>
<g><path style="opacity:0.568" fill="#63a659" d="M 843.5,77.5 C 865.5,77.5 887.5,77.5 909.5,77.5C 909.5,79.8333 909.5,82.1667 909.5,84.5C 908.539,82.7354 908.205,80.7354 908.5,78.5C 887.3,78.1833 866.133,78.5167 845,79.5C 843.97,79.1639 843.47,78.4972 843.5,77.5 Z"/></g>
<g><path style="opacity:0.973" fill="#619c5a" d="M 1066.5,191.5 C 1068.91,195.935 1072.08,199.935 1076,203.5C 1076.82,206.117 1077.32,208.784 1077.5,211.5C 1077.17,211.5 1076.83,211.5 1076.5,211.5C 1073.18,204.864 1069.85,198.198 1066.5,191.5 Z"/></g>
</svg>
